<?xml version="1.0" encoding="utf-8"?>
<!-- Generator: Adobe Illustrator 21.1.0, SVG Export Plug-In . SVG Version: 6.00 Build 0)  -->
<svg version="1.2" baseProfile="tiny" id="Layer_1" xmlns="http://www.w3.org/2000/svg" xmlns:xlink="http://www.w3.org/1999/xlink"
	 x="0px" y="0px" viewBox="0 0 1246 470" xml:space="preserve">
<g>
	<g>
		<path d="M87.7,362.3h67.4v91.9c-11,3.6-21.6,6.1-31.7,7.6c-10.1,1.5-21.1,2.3-32.9,2.3c-27.7,0-49.1-8.2-64.1-24.6
			c-15-16.4-22.5-39.5-22.5-69.4c0-29.5,8.5-52.5,25.4-69.2c16.9-16.7,40.3-25,70-25c19.1,0,37.2,3.7,54.3,11L143,311.8
			c-14.9-6.8-29.7-10.3-44.6-10.3c-19.5,0-35,6.1-46.3,18.4c-11.4,12.3-17,29-17,50.3c0,22.4,5.1,39.4,15.3,51
			c10.2,11.6,24.9,17.5,44.1,17.5c9.7,0,20-1.2,31.1-3.6v-47.2H87.7V362.3z"/>
		<path d="M179.5,286.4c0-5.3,1.4-9.3,4.3-12.1c2.9-2.8,7-4.3,12.3-4.3c5.2,0,9.2,1.4,12.1,4.3c2.9,2.8,4.3,6.9,4.3,12.1
			c0,5-1.4,9-4.3,11.8c-2.9,2.9-6.9,4.3-12.1,4.3c-5.3,0-9.5-1.4-12.3-4.3C180.9,295.4,179.5,291.4,179.5,286.4z M210.7,461.6h-29.4
			V323.1h29.4V461.6z"/>
		<path d="M298.6,464.1c-21.5,0-38.4-6.3-50.5-18.8c-12.1-12.6-18.2-29.9-18.2-51.9c0-22.6,5.6-40.4,16.9-53.3
			c11.3-12.9,26.8-19.4,46.5-19.4c18.3,0,32.7,5.6,43.3,16.7c10.6,11.1,15.9,26.4,15.9,45.8V399h-92.3c0.4,13.4,4,23.8,10.9,31
			c6.8,7.2,16.5,10.8,28.9,10.8c8.2,0,15.8-0.8,22.9-2.3c7.1-1.5,14.6-4.1,22.7-7.7v23.9c-7.2,3.4-14.4,5.8-21.8,7.3
			C316.4,463.4,308,464.1,298.6,464.1z M293.2,342.9c-9.3,0-16.8,3-22.5,8.9c-5.6,5.9-9,14.6-10.1,25.9h62.9
			c-0.2-11.4-2.9-20.1-8.3-26C309.9,345.8,302.6,342.9,293.2,342.9z"/>
		<path d="M400.7,461.6h-29.4V266.7h29.4V461.6z"/>
		<path d="M457.6,461.6h-29.4V266.7h29.4V461.6z"/>
		<path d="M571.7,461.6l-5.9-19.3h-1c-6.7,8.4-13.4,14.2-20.2,17.2c-6.8,3-15.4,4.6-26,4.6c-13.6,0-24.2-3.7-31.9-11
			c-7.6-7.3-11.5-17.7-11.5-31.2c0-14.3,5.3-25,15.9-32.3c10.6-7.3,26.8-11.2,48.5-11.9l23.9-0.8v-7.4c0-8.8-2.1-15.5-6.2-19.8
			c-4.1-4.4-10.5-6.6-19.2-6.6c-7.1,0-13.9,1-20.4,3.1c-6.5,2.1-12.8,4.6-18.8,7.4l-9.5-21c7.5-3.9,15.7-6.9,24.7-9
			c8.9-2,17.4-3.1,25.3-3.1c17.6,0,30.9,3.8,39.9,11.5c9,7.7,13.5,19.7,13.5,36.2v93.3H571.7z M527.8,441.5c10.7,0,19.3-3,25.7-9
			c6.5-6,9.7-14.3,9.7-25.1v-12l-17.8,0.8c-13.9,0.5-23.9,2.8-30.2,6.9c-6.3,4.1-9.5,10.5-9.5,19c0,6.2,1.8,11,5.5,14.3
			C515,439.8,520.5,441.5,527.8,441.5z"/>
		<path d="M670.7,440.3c7.2,0,14.4-1.1,21.5-3.4v22.2c-3.3,1.4-7.4,2.6-12.6,3.6c-5.1,1-10.5,1.4-16,1.4
			c-27.9,0-41.8-14.7-41.8-44.1v-74.6H603v-13l20.3-10.8l10-29.3h18.2v30.8h39.4v22.3h-39.4v74.1c0,7.1,1.8,12.3,5.3,15.7
			C660.3,438.6,665,440.3,670.7,440.3z"/>
		<path d="M765.8,464.1c-21.5,0-38.4-6.3-50.5-18.8c-12.1-12.6-18.2-29.9-18.2-51.9c0-22.6,5.6-40.4,16.9-53.3
			c11.3-12.9,26.8-19.4,46.5-19.4c18.3,0,32.7,5.6,43.3,16.7c10.6,11.1,15.9,26.4,15.9,45.8V399h-92.3c0.4,13.4,4,23.8,10.9,31
			c6.8,7.2,16.5,10.8,28.9,10.8c8.2,0,15.8-0.8,22.9-2.3c7.1-1.5,14.6-4.1,22.7-7.7v23.9c-7.2,3.4-14.4,5.8-21.8,7.3
			C783.6,463.4,775.2,464.1,765.8,464.1z M760.4,342.9c-9.3,0-16.8,3-22.5,8.9c-5.6,5.9-9,14.6-10.1,25.9h62.9
			c-0.2-11.4-2.9-20.1-8.3-26C777.1,345.8,769.8,342.9,760.4,342.9z"/>
		<path d="M866.9,388.4l16.7-20.8l41.8-44.6h33.9l-55.7,59.5l59.2,79h-34.6l-44.4-60.7l-16.2,13.3v47.5h-29.2V266.7h29.2v95
			l-1.5,26.7H866.9z"/>
		<path d="M1092.3,461.6h-29.5v-85.1c0-10.7-2.2-18.7-6.4-23.9c-4.3-5.3-11.1-7.9-20.5-7.9c-12.4,0-21.5,3.7-27.3,11
			c-5.8,7.3-8.6,19.7-8.6,36.9v69h-29.4V323.1h23l4.1,18.2h1.5c4.2-6.6,10.1-11.7,17.8-15.3c7.7-3.6,16.2-5.4,25.5-5.4
			c33.2,0,49.8,16.9,49.8,50.7V461.6z"/>
		<path d="M1241.4,392.1c0,22.6-5.8,40.3-17.4,53c-11.6,12.7-27.8,19-48.5,19c-12.9,0-24.4-2.9-34.3-8.8
			c-9.9-5.8-17.6-14.2-22.9-25.2c-5.3-10.9-8-23.6-8-38.1c0-22.5,5.8-40,17.3-52.6c11.5-12.6,27.8-18.9,48.7-18.9
			c20,0,35.9,6.4,47.6,19.3C1235.6,352.8,1241.4,370.2,1241.4,392.1z M1140.6,392.1c0,32,11.8,48,35.4,48c23.4,0,35.1-16,35.1-48
			c0-31.6-11.8-47.5-35.3-47.5c-12.4,0-21.3,4.1-26.9,12.3C1143.4,365.1,1140.6,376.8,1140.6,392.1z"/>
	</g>
	<g>
		<path d="M724.8,120.8L724.6,67c-19.4-0.1-46.6,0.2-61.4,7.3c-10.7,5.1-19.8,29-27.1,48.3c-0.1,0.4-0.3,0.7-0.4,1.1l-0.1,0
			c0,0.1-0.1,0.3-0.1,0.4l0.1,0c-6.6,17.4-13,33.6-22.3,44c-12.5,13.9-31.5,31-51.5,33.3c-7.1,0.8-39.3,1.9-49.5,2.2l0,0
			c-28.1,0.2-69.3,0.4-96.5-0.1c-27-0.5-47.5-8.1-60.8-22.6c-10.6-11.6-22.7-34.1-19.9-75.6c0.1-0.8,0.1-1.5,0.1-2
			c1.2-24.8,21-64.4,69-65.4c23.1-0.5,40.2,4.7,50.9,15.3c10.9,10.8,12.9,25.5,12.7,35.9c-0.2,9.6-1.9,23-9.3,33
			c-8,11-21.6,16.1-41.4,15.7c-8-0.2-16.4-5.1-16.2-18.6c0.1-8.1,3.6-11,7.1-12.8c4.8-2.5,10.2-2.7,10.3-2.7l-0.1,0
			c8.6,0,15.6-7.1,15.6-15.7c0-8.7-7.1-15.6-15.7-15.6c-0.1,0-0.2,0-0.3,0c-19.1,0.2-47.6,12.6-48.1,46.2
			c-0.5,28.3,19.7,50,46.9,50.5c1,0,2,0,2.9,0c35.9-0.1,54.8-15.5,64.4-28.6c9.6-13.1,14.9-30.8,15.3-51
			c0.5-23.6-7.1-43.9-21.9-58.7c-17-16.9-41.8-25.1-73.7-24.5c-37.7,0.8-61.1,18.7-74.2,33.6c-15.1,17.3-24.4,39.7-25.4,61.6
			c0,0.3-0.1,0.8-0.1,1.4c-3.6,52.6,13.3,82.8,28.1,98.9c19.4,21.1,47.5,32.1,83.4,32.8c18.6,0.3,104.6,1.2,106.6,1.2l215.1-0.7
			c9.2,0,15.9-9.2,13.4-18.5L724.8,120.8z"/>
		<path d="M939,38.9C919.8,17.8,891.9,6.8,856.2,6c-22.1-0.5-57.2-0.4-87.1-0.2L704,5.7c-0.8-0.1-1.7-0.2-2.6-0.2l-35.9,0.1l-7.8,0
			l0,0L551.3,6c-9.4,0-17.1,7.7-17,17.1l0.3,98.3l-14.2,52.9c15.7-0.5,34-1.3,38.1-1.7c8.3-0.9,20.7-9.8,33.2-23.8
			c4.4-4.9,8.6-14.3,12.8-24.7l0.2,0c0-0.1,0.1-0.3,0.2-0.4l-0.2,0c1.5-3.8,3-7.6,4.5-11.5c10.1-26.5,20.6-53.9,41.7-64
			c20.6-9.9,67.9-10.6,67.9-10.6c20.9-0.2,98.7-1.1,137-0.3c26.8,0.6,47.1,8.2,60.3,22.7c10.5,11.5,22.4,33.9,19.4,75.1
			c-0.1,0.8-0.1,1.5-0.1,2c-1.3,24.5-21.1,63.8-68.7,64.6c-22.9,0.4-39.9-4.8-50.4-15.4c-10.7-10.8-12.7-25.3-12.4-35.6
			c1-44.2,29.3-48.6,50.4-48.1c7.9,0.2,16.1,5.1,15.9,18.5c-0.2,8-3.6,10.8-7,12.6c-4.8,2.5-10.1,2.6-10.2,2.6l0.2,0l0,0
			c-8.4,0.3-15.1,7.2-15.1,15.7c0,8.4,6.7,15.3,15,15.6l0,0l0.2,0c0,0,0.1,0,0.1,0c0.1,0,0.2,0,0.4,0c0.3,0,0.5,0,0.8,0
			c19-0.6,46.2-13,46.9-45.8c0.6-28.1-19.4-49.8-46.5-50.4c-37.6-0.9-57.2,14.8-67,28.1c-9.6,13-15,30.5-15.4,50.6
			c-0.5,23.5,6.9,43.7,21.5,58.4c16.4,16.5,40.2,24.8,70.8,24.7c0.8,0,1.6,0,2.4,0c37.5-0.7,60.9-18.4,73.9-33.1
			c15.1-17.1,24.4-39.4,25.5-61.2c0-0.3,0.1-0.8,0.1-1.4C970.3,85,953.6,54.9,939,38.9z"/>
	</g>
</g>
</svg>
